Coordinates
version=1
nRows=13
nColumns=40
inDegrees=yes

Units are S.I. units (second, meters, Newtons, ...)
If the header above contains a line with 'inDegrees', this indicates whether rotational values are in degrees (yes) or radians (no).

endheader
time	pelvis_tilt	pelvis_list	pelvis_rotation	pelvis_tx	pelvis_ty	pelvis_tz	hip_flexion_r	hip_adduction_r	hip_rotation_r	knee_angle_r	knee_angle_r_beta	ankle_angle_r	subtalar_angle_r	mtp_angle_r	hip_flexion_l	hip_adduction_l	hip_rotation_l	knee_angle_l	knee_angle_l_beta	ankle_angle_l	subtalar_angle_l	mtp_angle_l	lumbar_extension	lumbar_bending	lumbar_rotation	arm_flex_r	arm_add_r	arm_rot_r	elbow_flex_r	pro_sup_r	wrist_flex_r	wrist_dev_r	arm_flex_l	arm_add_l	arm_rot_l	elbow_flex_l	pro_sup_l	wrist_flex_l	wrist_dev_l
      4.09500000	    -45.44688435	     -3.57154544	      1.50488842	     -0.39212042	      0.58923471	     -0.89000742	    108.94724949	    -21.54920000	     -4.25931251	     97.05951917	      1.69400818	     31.18654724	      0.00000000	      0.00000000	    112.96955738	    -21.47882111	      2.25898476	     97.06842729	      1.69416366	     30.84142072	      0.00000000	      0.00000000	    -15.28206130	      3.10124226	     -4.50154933	    -37.40168500	    -34.31029108	      1.19095507	    120.78134732	     87.73978593	      0.00000000	      0.00000000	    -44.96777709	    -33.74436177	      0.61345924	    116.09484472	     88.10598191	      0.00000000	      0.00000000
      4.10000000	    -45.42714817	     -3.55477171	      1.52953028	     -0.39203050	      0.58922758	     -0.89014290	    108.92012723	    -21.49506393	     -4.16957499	     97.03937885	      1.69365666	     31.27342424	      0.00000000	      0.00000000	    112.92030841	    -21.44270581	      2.24934250	     97.08228399	      1.69440550	     30.90921158	      0.00000000	      0.00000000	    -15.30162220	      3.11002499	     -4.58085608	    -37.24169706	    -34.42121195	      1.33050728	    120.76762275	     87.64103217	      0.00000000	      0.00000000	    -44.95818401	    -33.80461984	      0.65208094	    116.08825340	     88.16562456	      0.00000000	      0.00000000
      4.10500000	    -45.53703091	     -3.52398175	      1.31153936	     -0.39223840	      0.58910395	     -0.88958886	    108.99260705	    -21.10786631	     -4.11981711	     96.94142814	      1.69194710	     31.43081997	      0.00000000	      0.00000000	    113.03437854	    -21.67579822	      2.30998663	     97.05049271	      1.69385064	     31.04021951	      0.00000000	      0.00000000	    -15.19911353	      3.01869762	     -4.45337002	    -37.05526967	    -34.49535428	      1.48936367	    120.76512242	     87.54605731	      0.00000000	      0.00000000	    -45.02549520	    -33.86648327	      0.58651413	    116.13509007	     88.19256184	      0.00000000	      0.00000000
      4.11000000	    -45.63162342	     -3.51255969	      1.42714678	     -0.39236190	      0.58898541	     -0.88999051	    109.09800185	    -21.18795209	     -4.01148789	     96.91338017	      1.69145757	     31.49575423	      0.00000000	      0.00000000	    113.06243837	    -21.48077042	      2.29692811	     96.99588784	      1.69289760	     31.04407472	      0.00000000	      0.00000000	    -15.06867277	      3.07807310	     -4.65802506	    -36.86091882	    -34.67715451	      1.64989121	    120.77497840	     87.26942059	      0.00000000	      0.00000000	    -45.00909943	    -33.91229610	      0.67298822	    116.10188333	     88.26506847	      0.00000000	      0.00000000
      4.11500000	    -45.32540078	     -3.38013013	      1.06836049	     -0.39124555	      0.58959502	     -0.88915361	    108.67740801	    -20.65734380	     -3.97784103	     96.87579190	      1.69080153	     31.64922622	      0.00000000	      0.00000000	    112.67546344	    -22.08227198	      2.20564272	     97.11093197	      1.69490550	     31.20858032	      0.00000000	      0.00000000	    -15.36937930	      2.83786221	     -4.38610475	    -36.50785319	    -34.66873419	      1.89762244	    120.53952939	     87.68219547	      0.00000000	      0.00000000	    -44.93028581	    -34.01077412	      0.74839790	    115.99475100	     88.10836203	      0.00000000	      0.00000000
      4.12000000	    -45.28954342	     -3.24676886	      0.83931205	     -0.39093944	      0.58980907	     -0.88865003	    108.61088635	    -20.28036391	     -3.86001048	     96.80259956	      1.68952409	     31.69525669	      0.00000000	      0.00000000	    112.54934354	    -22.40728440	      2.12827236	     97.12855430	      1.69521307	     31.25706159	      0.00000000	      0.00000000	    -15.35491432	      2.66547423	     -4.05421735	    -36.51540419	    -34.56913336	      1.84954727	    120.56556982	     87.73064179	      0.00000000	      0.00000000	    -44.62972595	    -34.35193877	      1.08182740	    115.89718338	     88.07306386	      0.00000000	      0.00000000
      4.12500000	    -44.87767992	     -3.01808967	     -0.04928603	     -0.38926781	      0.59059314	     -0.88644040	    108.01403992	    -19.14684077	     -3.95966958	     96.71966827	      1.68807666	     31.85110032	      0.00000000	      0.00000000	    112.10785809	    -23.72266506	      2.12544237	     97.39393079	      1.69984476	     31.37201887	      0.00000000	      0.00000000	    -15.71493610	      2.11880627	     -3.47285207	    -35.82322880	    -34.64022450	      2.54837324	    120.27421912	     87.69612382	      0.00000000	      0.00000000	    -44.81142161	    -34.37543379	      0.89673848	    115.79431446	     88.09109077	      0.00000000	      0.00000000
      4.13000000	    -44.47880429	     -3.03325827	      0.14172800	     -0.38783844	      0.59137925	     -0.88699451	    107.53419497	    -19.40317220	     -3.93781104	     96.84489461	      1.69026227	     31.66538521	      0.00000000	      0.00000000	    111.60107332	    -23.62812316	      1.99971711	     97.53353334	      1.70228129	     31.11949887	      0.00000000	      0.00000000	    -16.01582057	      2.23243984	     -3.64504257	    -35.50959479	    -34.76724397	      2.81107389	    120.12221885	     87.59711466	      0.00000000	      0.00000000	    -44.50928757	    -34.51326839	      1.17292774	    115.60081240	     88.22126260	      0.00000000	      0.00000000
      4.13500000	    -44.21581036	     -3.40592718	      1.12279137	     -0.38673858	      0.59212518	     -0.88934125	    107.02985704	    -20.56733262	     -4.03024140	     96.93456045	      1.69182724	     32.26694546	      0.00000000	      0.00000000	    111.12653851	    -22.34585862	      2.06839048	     97.28740546	      1.69798555	     31.43340988	      0.00000000	      0.00000000	    -16.11114656	      3.00913112	     -4.55707388	    -35.15807151	    -35.11981650	      3.07204399	    120.02155637	     87.39399967	      0.00000000	      0.00000000	    -44.16246406	    -34.44585661	      1.54480521	    115.32088183	     88.19448251	      0.00000000	      0.00000000
      4.14000000	    -43.35976994	     -3.18809783	      0.47738315	     -0.38368896	      0.59387482	     -0.88784040	    105.90005618	    -19.78896028	     -4.11404785	     96.93602117	      1.69185273	     32.39711581	      0.00000000	      0.00000000	    110.09551357	    -23.47278037	      1.91994835	     97.61367220	      1.70367997	     31.51837415	      0.00000000	      0.00000000	    -16.85876509	      2.57909232	     -4.02899229	    -34.52295591	    -35.05951845	      3.55760288	    119.61704685	     87.56664461	      0.00000000	      0.00000000	    -43.81523004	    -34.59567254	      1.74735543	    114.97577847	     88.10611685	      0.00000000	      0.00000000
      4.14500000	    -43.09406284	     -2.92154649	     -0.33252083	     -0.38262905	      0.59518634	     -0.88564519	    105.47427854	    -18.63327706	     -4.02164135	     96.70250217	      1.68777706	     32.52683402	      0.00000000	      0.00000000	    109.63312066	    -24.57630069	      1.85165961	     97.58573236	      1.70319233	     31.69127261	      0.00000000	      0.00000000	    -17.00129861	      2.00888881	     -3.40269358	    -33.87279393	    -35.03900229	      4.13527062	    119.39351957	     87.35406985	      0.00000000	      0.00000000	    -43.64103112	    -35.02368578	      1.85941640	    114.87937929	     88.19840075	      0.00000000	      0.00000000
      4.15000000	    -43.35969341	     -2.67056222	     -0.28628449	     -0.38272229	      0.59533868	     -0.88588817	    105.82886247	    -18.49312996	     -3.53302913	     96.61123491	      1.68618414	     32.40829470	      0.00000000	      0.00000000	    109.63483203	    -24.40319233	      1.65050583	     97.39378821	      1.69984228	     31.66139277	      0.00000000	      0.00000000	    -16.48016469	      1.80711184	     -3.62594783	    -33.55206560	    -35.16301701	      4.40481488	    119.35586140	     87.46316611	      0.00000000	      0.00000000	    -43.61410629	    -35.12971411	      1.89388629	    114.86666584	     88.16236708	      0.00000000	      0.00000000
      4.15500000	    -42.38206143	     -2.72088579	     -0.33287870	     -0.37925501	      0.59792540	     -0.88585606	    104.40221106	    -18.47963182	     -3.71144471	     96.56926974	      1.68545171	     32.43093420	      0.00000000	      0.00000000	    108.35520591	    -24.66375465	      1.60317380	     97.49487289	      1.70160654	     31.56953162	      0.00000000	      0.00000000	    -17.25226252	      1.85346168	     -3.54719816	    -32.81852225	    -35.08939874	      4.62957811	    118.90725093	     87.51119549	      0.00000000	      0.00000000	    -42.94886276	    -35.16523209	      2.10685353	    114.37759163	     88.10327785	      0.00000000	      0.00000000
